<svg xmlns="http://www.w3.org/2000/svg" xmlns:xlink="http://www.w3.org/1999/xlink" version="1.1" id="Layer_1" x="0px" y="0px" width="100px" height="100px" viewBox="0 0 100 100" enable-background="new 0 0 100 100" xml:space="preserve">
<g>
	<g>
		<path fill="#000000" d="M58.065,32.624H41.935c-2.584,0-4.684,2.093-4.684,4.68v21.95c0,2.585,2.1,4.682,4.684,4.682h0.024v15.551    c0,2.586,2.034,4.682,4.554,4.682h6.975c2.515,0,4.555-2.095,4.555-4.682V63.936h0.023c2.586,0,4.685-2.095,4.685-4.682v-21.95    C62.747,34.717,60.651,32.624,58.065,32.624z"/>
		<circle fill="#000000" cx="50" cy="23.473" r="7.64"/>
	</g>
	<g>
		<path fill="#000000" d="M85.989,34.448h-13.82c-2.221,0-4.016,1.797-4.016,4.012v18.812c0,2.218,1.795,4.012,4.016,4.012h0.021    v13.324c0,2.216,1.744,4.01,3.896,4.01h5.981c2.154,0,3.897-1.794,3.897-4.01V61.283h0.021c2.218,0,4.014-1.797,4.014-4.014    V38.458C90.001,36.245,88.205,34.448,85.989,34.448z"/>
		<path fill="#000000" d="M79.08,20.062c3.612,0,6.546,2.931,6.546,6.545c0,3.617-2.934,6.549-6.546,6.549    c-3.617,0-6.548-2.932-6.548-6.549C72.532,22.993,75.463,20.062,79.08,20.062z"/>
	</g>
	<g>
		<path fill="#000000" d="M27.833,34.448h-13.82c-2.217,0-4.012,1.797-4.012,4.01V57.27c0,2.217,1.795,4.014,4.012,4.014h0.021    v13.322c0,2.218,1.746,4.012,3.9,4.012h5.979c2.152,0,3.896-1.794,3.896-4.012V61.283h0.021c2.216,0,4.012-1.797,4.012-4.014    V38.458C31.842,36.245,30.049,34.448,27.833,34.448z"/>
		<circle fill="#000000" cx="20.922" cy="26.609" r="6.546"/>
	</g>
</g>
</svg>