<?xml version="1.0" encoding="UTF-8" standalone="no"?>
<svg
   xmlns:dc="http://purl.org/dc/elements/1.1/"
   xmlns:cc="http://creativecommons.org/ns#"
   xmlns:rdf="http://www.w3.org/1999/02/22-rdf-syntax-ns#"
   xmlns:svg="http://www.w3.org/2000/svg"
   xmlns="http://www.w3.org/2000/svg"
   xmlns:sodipodi="http://sodipodi.sourceforge.net/DTD/sodipodi-0.dtd"
   xmlns:inkscape="http://www.inkscape.org/namespaces/inkscape"
   version="1.1"
   id="Layer_1"
   x="0px"
   y="0px"
   width="100px"
   height="100px"
   viewBox="0 0 100 100"
   enable-background="new 0 0 100 100"
   xml:space="preserve"
   inkscape:version="0.48.4 r9939"
   sodipodi:docname="Artist Background.svg"
   inkscape:export-filename="D:\Sandbox\AndroidNoise\AndroidNoise\design\artist_background.png"
   inkscape:export-xdpi="216"
   inkscape:export-ydpi="216"><metadata
   id="metadata3025"><rdf:RDF><cc:Work
       rdf:about=""><dc:format>image/svg+xml</dc:format><dc:type
         rdf:resource="http://purl.org/dc/dcmitype/StillImage" /><dc:title></dc:title></cc:Work></rdf:RDF></metadata><defs
   id="defs3023">
	
	
	
	
</defs><sodipodi:namedview
   pagecolor="#ffffff"
   bordercolor="#666666"
   borderopacity="1"
   objecttolerance="10"
   gridtolerance="10"
   guidetolerance="10"
   inkscape:pageopacity="0"
   inkscape:pageshadow="2"
   inkscape:window-width="1781"
   inkscape:window-height="950"
   id="namedview3021"
   showgrid="false"
   inkscape:zoom="8.1169349"
   inkscape:cx="49.7335"
   inkscape:cy="49.9995"
   inkscape:window-x="1322"
   inkscape:window-y="108"
   inkscape:window-maximized="0"
   inkscape:current-layer="Layer_1" />
<path
   style="fill:#d3e2fd;fill-opacity:1"
   inkscape:connector-curvature="0"
   id="path3009"
   d="m 29.367,34.304 c 3.094,0 5.919,-1.122 8.106,-2.973 -3.069,-3.341 -4.972,-7.769 -4.972,-12.665 0,-2.99 0.716,-5.806 1.958,-8.317 -1.558,-0.69 -3.277,-1.083 -5.092,-1.083 -6.931,0 -12.547,5.604 -12.547,12.52 0,6.914 5.617,12.518 12.547,12.518 z" /><path
   style="fill:#d3e2fd;fill-opacity:1"
   inkscape:connector-curvature="0"
   id="path3011"
   d="m 70.101,18.667 c 0,4.896 -1.903,9.324 -4.974,12.665 2.188,1.851 5.014,2.973 8.107,2.973 6.929,0 12.545,-5.604 12.545,-12.518 0,-6.915 -5.616,-12.52 -12.545,-12.52 -1.814,0 -3.534,0.393 -5.092,1.084 1.243,2.509 1.959,5.325 1.959,8.316 z" /><path
   style="fill:#d3e2fd;fill-opacity:1"
   inkscape:connector-curvature="0"
   id="path3013"
   d="M 29.367,65.667 26.24,37.513 C 19.086,37.886 10.567,40.6 10.567,40.6 L 13.7,62.533 19.967,68.8 v 18.8 c 0,0 4.117,3.134 7.833,3.134 3.67,0 7.833,-3.134 7.833,-3.134 V 69.844 l -6.266,-4.177 z" /><path
   style="fill:#d3e2fd;fill-opacity:1"
   inkscape:connector-curvature="0"
   id="path3015"
   d="m 76.324,37.851 -3.09,27.816 -9.4,6.267 V 87.6 c 0,0 4.117,3.134 7.833,3.134 3.671,0 7.834,-3.134 7.834,-3.134 V 68.8 L 86.438,63.139 88.9,41.063 c 0,0 -6.291,-2.288 -12.576,-3.212 z" />
<path
   fill-rule="evenodd"
   clip-rule="evenodd"
   fill="#000000"
   d="M29.367,40.6c0,0,12.504-3.133,21.934-3.133  c9.371,0,21.934,3.133,21.934,3.133l-3.134,25.067l-9.399,6.267v21.933c0,0-4.729,3.134-9.4,3.134c-4.729,0-9.4-3.134-9.4-3.134  V71.934l-9.4-6.267L29.367,40.6z"
   id="path3017"
   style="fill:#d3e2fd;fill-opacity:1" />
<path
   fill-rule="evenodd"
   clip-rule="evenodd"
   fill="#000000"
   d="M51.301,3c8.651,0,15.667,7.013,15.667,15.667  c0,8.652-7.016,15.667-15.667,15.667c-8.653,0-15.667-7.015-15.667-15.667C35.634,10.013,42.647,3,51.301,3z"
   id="path3019"
   style="fill:#d3e2fd;fill-opacity:1" />
</svg>