<?xml version="1.0" encoding="UTF-8" standalone="no"?>
<svg
   xmlns:dc="http://purl.org/dc/elements/1.1/"
   xmlns:cc="http://creativecommons.org/ns#"
   xmlns:rdf="http://www.w3.org/1999/02/22-rdf-syntax-ns#"
   xmlns:svg="http://www.w3.org/2000/svg"
   xmlns="http://www.w3.org/2000/svg"
   xmlns:sodipodi="http://sodipodi.sourceforge.net/DTD/sodipodi-0.dtd"
   xmlns:inkscape="http://www.inkscape.org/namespaces/inkscape"
   version="1.1"
   id="Layer_1"
   x="0px"
   y="0px"
   width="35.5"
   height="78.335999"
   viewBox="0 0 35.5 78.335999"
   enable-background="new 0 0 100 100"
   xml:space="preserve"
   inkscape:version="0.48.4 r9939"
   sodipodi:docname="Artist Icon.svg"
   inkscape:export-filename="D:\Sandbox\AndroidNoise\AndroidNoise\design\artist_icon.png"
   inkscape:export-xdpi="588.23529"
   inkscape:export-ydpi="588.23529"><metadata
   id="metadata3037"><rdf:RDF><cc:Work
       rdf:about=""><dc:format>image/svg+xml</dc:format><dc:type
         rdf:resource="http://purl.org/dc/dcmitype/StillImage" /><dc:title></dc:title></cc:Work></rdf:RDF></metadata><defs
   id="defs3035">
	
	
	
</defs><sodipodi:namedview
   pagecolor="#ffffff"
   bordercolor="#666666"
   borderopacity="1"
   objecttolerance="10"
   gridtolerance="10"
   guidetolerance="10"
   inkscape:pageopacity="0"
   inkscape:pageshadow="2"
   inkscape:window-width="1587"
   inkscape:window-height="969"
   id="namedview3033"
   showgrid="false"
   fit-margin-top="5"
   fit-margin-left="5"
   fit-margin-right="5"
   fit-margin-bottom="5"
   inkscape:zoom="7.82"
   inkscape:cx="17.749"
   inkscape:cy="39.169"
   inkscape:window-x="1414"
   inkscape:window-y="84"
   inkscape:window-maximized="0"
   inkscape:current-layer="Layer_1" />
<g
   id="g3015"
   transform="translate(-32.251,-10.833)">
		<path
   style="fill:#000000"
   inkscape:connector-curvature="0"
   id="path3017"
   d="m 58.065,32.624 h -16.13 c -2.584,0 -4.684,2.093 -4.684,4.68 v 21.95 c 0,2.585 2.1,4.682 4.684,4.682 h 0.024 v 15.551 c 0,2.586 2.034,4.682 4.554,4.682 h 6.975 c 2.515,0 4.555,-2.095 4.555,-4.682 V 63.936 h 0.023 c 2.586,0 4.685,-2.095 4.685,-4.682 v -21.95 c -0.004,-2.587 -2.1,-4.68 -4.686,-4.68 z" />
		<circle
   style="fill:#000000"
   sodipodi:ry="7.6399999"
   sodipodi:rx="7.6399999"
   sodipodi:cy="23.473"
   sodipodi:cx="50"
   id="circle3019"
   r="7.6399999"
   cy="23.473"
   cx="50"
   d="m 57.64,23.473 c 0,4.219455 -3.420545,7.639999 -7.64,7.639999 -4.219455,0 -7.64,-3.420544 -7.64,-7.639999 0,-4.219456 3.420545,-7.64 7.64,-7.64 4.219455,0 7.64,3.420544 7.64,7.64 z" />
	</g>
</svg>