<?xml version="1.0" encoding="UTF-8" standalone="no"?>
<svg
   xmlns:dc="http://purl.org/dc/elements/1.1/"
   xmlns:cc="http://creativecommons.org/ns#"
   xmlns:rdf="http://www.w3.org/1999/02/22-rdf-syntax-ns#"
   xmlns:svg="http://www.w3.org/2000/svg"
   xmlns="http://www.w3.org/2000/svg"
   xmlns:sodipodi="http://sodipodi.sourceforge.net/DTD/sodipodi-0.dtd"
   xmlns:inkscape="http://www.inkscape.org/namespaces/inkscape"
   version="1.1"
   id="Layer_1"
   x="0px"
   y="0px"
   width="100px"
   height="100px"
   viewBox="0 0 100 100"
   enable-background="new 0 0 100 100"
   xml:space="preserve"
   inkscape:version="0.48.4 r9939"
   sodipodi:docname="Configure.svg"
   inkscape:export-filename="C:\Users\BSwanson\Desktop\Sandbox\AndroidNoise\AndroidNoise\design\configure.png"
   inkscape:export-xdpi="40.5"
   inkscape:export-ydpi="40.5"><metadata
   id="metadata3001"><rdf:RDF><cc:Work
       rdf:about=""><dc:format>image/svg+xml</dc:format><dc:type
         rdf:resource="http://purl.org/dc/dcmitype/StillImage" /><dc:title></dc:title></cc:Work></rdf:RDF></metadata><defs
   id="defs2999" /><sodipodi:namedview
   pagecolor="#ffffff"
   bordercolor="#666666"
   borderopacity="1"
   objecttolerance="10"
   gridtolerance="10"
   guidetolerance="10"
   inkscape:pageopacity="0"
   inkscape:pageshadow="2"
   inkscape:window-width="1595"
   inkscape:window-height="1005"
   id="namedview2997"
   showgrid="false"
   inkscape:zoom="8.7561028"
   inkscape:cx="32.18373"
   inkscape:cy="49.999188"
   inkscape:window-x="59"
   inkscape:window-y="50"
   inkscape:window-maximized="0"
   inkscape:current-layer="Layer_1" />
<path
   d="M50,94.998c-1.872,0-3.762-0.118-5.619-0.351C41.883,94.334,40,92.2,40,89.684v-5.398c0-0.458-0.261-0.814-0.697-0.955  c-1.817-0.581-3.604-1.32-5.308-2.197c-0.402-0.206-0.847-0.138-1.168,0.183l-3.817,3.817c-0.948,0.948-2.204,1.47-3.536,1.47  c-1.104,0-2.196-0.376-3.073-1.059c-2.964-2.305-5.638-4.978-7.944-7.944c-1.545-1.986-1.369-4.827,0.411-6.608l3.817-3.817  c0.324-0.324,0.392-0.761,0.183-1.168c-0.874-1.698-1.614-3.484-2.198-5.31C16.529,60.261,16.172,60,15.714,60h-5.398  c-2.517,0-4.651-1.884-4.964-4.381c-0.466-3.729-0.466-7.51,0-11.238C5.665,41.884,7.799,40,10.316,40h5.397  c0.458,0,0.815-0.26,0.955-0.697c0.583-1.822,1.323-3.608,2.198-5.309c0.209-0.407,0.141-0.844-0.183-1.167l-3.817-3.817  c-1.78-1.78-1.958-4.621-0.413-6.608c2.308-2.967,4.981-5.64,7.946-7.946c0.877-0.682,1.968-1.058,3.072-1.058  c1.333,0,2.588,0.522,3.536,1.47l3.817,3.817c0.32,0.32,0.765,0.391,1.167,0.183c1.7-0.875,3.486-1.614,5.309-2.198  C39.739,16.53,40,16.172,40,15.714v-5.398c0-2.517,1.883-4.651,4.38-4.964c3.715-0.465,7.528-0.464,11.238,0  C58.116,5.665,60,7.799,60,10.316v5.397c0,0.458,0.261,0.815,0.697,0.955c1.822,0.583,3.608,1.323,5.309,2.198  c0.403,0.207,0.847,0.137,1.168-0.183l3.817-3.817c0.948-0.948,2.204-1.47,3.536-1.47c1.104,0,2.195,0.376,3.072,1.058  c2.965,2.305,5.639,4.979,7.945,7.945c1.546,1.987,1.369,4.828-0.412,6.609l-3.816,3.817c-0.324,0.324-0.393,0.76-0.183,1.167  c0.873,1.698,1.611,3.483,2.196,5.31C83.471,39.739,83.827,40,84.285,40h5.398c2.517,0,4.65,1.883,4.964,4.381  c0.467,3.729,0.467,7.51,0,11.237C94.335,58.116,92.2,60,89.684,60h-5.398c-0.458,0-0.814,0.261-0.955,0.697  c-0.581,1.818-1.32,3.605-2.197,5.309c-0.209,0.407-0.141,0.844,0.183,1.168l3.817,3.817c1.78,1.78,1.957,4.621,0.412,6.608  c-2.305,2.964-4.978,5.637-7.945,7.945c-0.877,0.682-1.969,1.058-3.072,1.058c-1.334,0-2.59-0.521-3.537-1.47l-3.816-3.816  c-0.321-0.321-0.763-0.393-1.167-0.183c-1.704,0.876-3.49,1.614-5.311,2.197C60.261,83.471,60,83.827,60,84.285v5.398  c0,2.517-1.884,4.65-4.381,4.964C53.763,94.88,51.872,94.998,50,94.998z M33.521,77.014c0.791,0,1.586,0.194,2.302,0.562  c1.509,0.776,3.09,1.431,4.699,1.945C42.603,80.188,44,82.103,44,84.285v5.398c0,0.513,0.37,0.932,0.879,0.995  c3.383,0.424,6.859,0.424,10.243,0C55.631,90.615,56,90.196,56,89.684v-5.398c0-2.183,1.396-4.097,3.477-4.764  c1.612-0.516,3.193-1.17,4.7-1.944c1.91-0.982,4.308-0.607,5.826,0.912l3.816,3.815c0.192,0.192,0.443,0.298,0.707,0.298  c0.155,0,0.389-0.037,0.618-0.216c2.705-2.104,5.142-4.541,7.242-7.242c0.315-0.405,0.28-0.962-0.082-1.325l-3.817-3.817  c-1.543-1.542-1.909-3.884-0.912-5.825c0.776-1.509,1.431-3.089,1.945-4.699C80.188,57.396,82.103,56,84.285,56h5.398  c0.513,0,0.932-0.369,0.995-0.879c0.426-3.397,0.426-6.844,0-10.243C90.615,44.37,90.196,44,89.684,44h-5.398  c-2.183,0-4.098-1.397-4.764-3.477c-0.519-1.617-1.173-3.199-1.944-4.7c-0.999-1.94-0.633-4.282,0.911-5.825l3.816-3.817  c0.363-0.363,0.397-0.92,0.083-1.324c-2.104-2.705-4.54-5.142-7.243-7.244c-0.229-0.178-0.462-0.216-0.617-0.216  c-0.265,0-0.516,0.106-0.708,0.298l-3.817,3.817c-1.521,1.52-3.917,1.894-5.825,0.912c-1.506-0.775-3.086-1.429-4.699-1.946  C57.397,19.812,56,17.897,56,15.714v-5.397c0-0.513-0.369-0.931-0.878-0.995c-3.384-0.423-6.859-0.424-10.245,0  C44.369,9.385,44,9.803,44,10.316v5.398c0,2.185-1.397,4.099-3.478,4.765c-1.613,0.517-3.194,1.171-4.699,1.945  c-1.912,0.984-4.306,0.607-5.826-0.911l-3.817-3.818c-0.192-0.192-0.444-0.298-0.708-0.298c-0.155,0-0.388,0.037-0.617,0.215  c-2.703,2.102-5.14,4.539-7.244,7.244c-0.314,0.404-0.28,0.962,0.083,1.325l3.817,3.817c1.543,1.544,1.909,3.885,0.912,5.825  c-0.775,1.506-1.43,3.087-1.946,4.699C19.813,42.603,17.898,44,15.714,44h-5.397c-0.513,0-0.931,0.369-0.995,0.878  c-0.425,3.399-0.425,6.846,0,10.244C9.385,55.631,9.803,56,10.316,56h5.398c2.184,0,4.098,1.397,4.765,3.477  c0.517,1.615,1.171,3.196,1.945,4.699c0.999,1.941,0.633,4.282-0.911,5.826l-3.817,3.817c-0.362,0.363-0.397,0.92-0.083,1.325  c2.103,2.704,4.54,5.141,7.243,7.242c0.229,0.179,0.462,0.216,0.617,0.216c0.264,0,0.516-0.105,0.708-0.298l3.817-3.817  C30.949,77.537,32.2,77.014,33.521,77.014z M50,67c-4.541,0-8.81-1.769-12.021-4.979C34.769,58.81,33,54.541,33,50  s1.769-8.81,4.979-12.021C41.19,34.769,45.459,33,50,33s8.81,1.769,12.021,4.979C65.231,41.19,67,45.459,67,50  s-1.769,8.811-4.979,12.021C58.811,65.231,54.541,67,50,67z M50,37c-3.473,0-6.737,1.353-9.192,3.808C38.353,43.263,37,46.527,37,50  s1.353,6.737,3.808,9.192C43.263,61.647,46.527,63,50,63s6.737-1.353,9.192-3.808S63,53.473,63,50s-1.353-6.737-3.808-9.192  C56.737,38.353,53.473,37,50,37z"
   id="path2995"
   style="stroke:none;stroke-opacity:0.50196081000000004;fill:#000000;fill-opacity:0.3764706;fill-rule:nonzero;stroke-width:0;stroke-miterlimit:4;stroke-dasharray:none" />
</svg>