<?xml version="1.0" encoding="UTF-8" standalone="no"?>
<svg
   xmlns:dc="http://purl.org/dc/elements/1.1/"
   xmlns:cc="http://creativecommons.org/ns#"
   xmlns:rdf="http://www.w3.org/1999/02/22-rdf-syntax-ns#"
   xmlns:svg="http://www.w3.org/2000/svg"
   xmlns="http://www.w3.org/2000/svg"
   xmlns:sodipodi="http://sodipodi.sourceforge.net/DTD/sodipodi-0.dtd"
   xmlns:inkscape="http://www.inkscape.org/namespaces/inkscape"
   version="1.1"
   id="Layer_1"
   x="0px"
   y="0px"
   width="47.525005"
   height="55.113998"
   viewBox="0 0 47.525006 55.113998"
   enable-background="new 0 0 50 50"
   xml:space="preserve"
   inkscape:version="0.48.4 r9939"
   sodipodi:docname="equalization.svg"
   inkscape:export-filename="D:\Sandbox\AndroidNoise\AndroidNoise\design\equalization.png"
   inkscape:export-xdpi="58.787243"
   inkscape:export-ydpi="58.787243"><metadata
   id="metadata3017"><rdf:RDF><cc:Work
       rdf:about=""><dc:format>image/svg+xml</dc:format><dc:type
         rdf:resource="http://purl.org/dc/dcmitype/StillImage" /><dc:title></dc:title></cc:Work></rdf:RDF></metadata><defs
   id="defs3015">
	
	
	
	
</defs><sodipodi:namedview
   pagecolor="#ffffff"
   bordercolor="#666666"
   borderopacity="1"
   objecttolerance="10"
   gridtolerance="10"
   guidetolerance="10"
   inkscape:pageopacity="0"
   inkscape:pageshadow="2"
   inkscape:window-width="1572"
   inkscape:window-height="920"
   id="namedview3013"
   showgrid="false"
   fit-margin-top="4"
   fit-margin-left="4"
   fit-margin-right="4"
   fit-margin-bottom="4"
   inkscape:zoom="13.299706"
   inkscape:cx="12.03292"
   inkscape:cy="27.556999"
   inkscape:window-x="1346"
   inkscape:window-y="116"
   inkscape:window-maximized="0"
   inkscape:current-layer="Layer_1" />
<g
   id="g3023"
   style="fill:#000000;fill-opacity:0.627451"><polygon
     transform="matrix(1.21,0,0,1,1.95752,2.557)"
     points="9.174,14.276 9.174,1.443 4.097,1.443 4.097,14.276 1.688,14.276 1.688,19.662 4.097,19.662 4.097,48.557 9.174,48.557 9.174,19.662 11.578,19.662 11.578,14.276 "
     id="polygon3005"
     style="fill:#000000;fill-opacity:0.627451" /><polygon
     transform="matrix(1.21,0,0,1,1.483825,2.557)"
     points="20.951,1.443 15.876,1.443 15.876,31.416 13.467,31.416 13.467,36.802 15.876,36.802 15.876,48.557 20.951,48.557 20.951,36.802 23.358,36.802 23.358,31.416 20.951,31.416 "
     id="polygon3007"
     style="fill:#000000;fill-opacity:0.627451" /><polygon
     transform="matrix(1.21,0,0,1,1.010445,2.557)"
     points="25.245,14.912 25.245,20.298 27.653,20.298 27.653,48.557 32.73,48.557 32.73,20.298 35.136,20.298 35.136,14.912 32.73,14.912 32.73,1.443 27.653,1.443 27.653,14.912 "
     id="polygon3009"
     style="fill:#000000;fill-opacity:0.627451" /></g>
</svg>