<?xml version="1.0" encoding="UTF-8" standalone="no"?>
<svg
   xmlns:dc="http://purl.org/dc/elements/1.1/"
   xmlns:cc="http://creativecommons.org/ns#"
   xmlns:rdf="http://www.w3.org/1999/02/22-rdf-syntax-ns#"
   xmlns:svg="http://www.w3.org/2000/svg"
   xmlns="http://www.w3.org/2000/svg"
   xmlns:sodipodi="http://sodipodi.sourceforge.net/DTD/sodipodi-0.dtd"
   xmlns:inkscape="http://www.inkscape.org/namespaces/inkscape"
   version="1.1"
   id="Your_Icon"
   x="0px"
   y="0px"
   width="107.08"
   height="108.00201"
   viewBox="0 0 107.08 108.00201"
   enable-background="new 0 0 99.08 100.002"
   xml:space="preserve"
   inkscape:version="0.48.4 r9939"
   sodipodi:docname="information.svg"
   inkscape:export-filename="D:\Sandbox\AndroidNoise\AndroidNoise\design\information.png"
   inkscape:export-xdpi="29.42"
   inkscape:export-ydpi="29.42"><metadata
   id="metadata3013"><rdf:RDF><cc:Work
       rdf:about=""><dc:format>image/svg+xml</dc:format><dc:type
         rdf:resource="http://purl.org/dc/dcmitype/StillImage" /><dc:title></dc:title></cc:Work></rdf:RDF></metadata><defs
   id="defs3011" /><sodipodi:namedview
   pagecolor="#ffffff"
   bordercolor="#666666"
   borderopacity="1"
   objecttolerance="10"
   gridtolerance="10"
   guidetolerance="10"
   inkscape:pageopacity="0"
   inkscape:pageshadow="2"
   inkscape:window-width="1625"
   inkscape:window-height="955"
   id="namedview3009"
   showgrid="false"
   fit-margin-top="4"
   fit-margin-left="4"
   fit-margin-right="4"
   fit-margin-bottom="4"
   inkscape:zoom="2.3599528"
   inkscape:cx="-12.563017"
   inkscape:cy="54.001006"
   inkscape:window-x="1403"
   inkscape:window-y="90"
   inkscape:window-maximized="0"
   inkscape:current-layer="Your_Icon" />
<g
   id="g3001"
   transform="translate(3.9999986,4.0000034)"
   style="fill:#000000;fill-opacity:0.627451">
	<path
   d="M 49.539,100.002 C 76.883,100.016 99.057,77.624 99.08,50.023 99.057,22.381 76.883,-0.01 49.539,0 22.188,-0.01 0.018,22.381 0,50.023 c 0.018,27.601 22.188,49.993 49.539,49.979 z m 0,-88.482 c 21.043,0 38.1,17.23 38.076,38.506 C 87.638,71.258 70.582,88.488 49.539,88.479 28.491,88.489 11.432,71.255 11.408,50.023 11.432,28.75 28.491,11.52 49.539,11.52 z"
   id="path3003"
   inkscape:connector-curvature="0"
   style="fill:#000000;fill-opacity:0.627451" />
	<path
   d="m 57.516,70.865 c -0.484,0 -0.881,-0.566 -0.881,-1.263 V 40.036 H 38.169 v 3.795 h 3.342 c 0.484,0 0.873,0.396 0.873,0.881 v 25.273 c 0,0.485 -0.393,0.881 -0.873,0.881 h -3.342 v 3.922 h 22.948 v -3.922 h -3.601 l 0,-0.001 z"
   id="path3005"
   inkscape:connector-curvature="0"
   style="fill:#000000;fill-opacity:0.627451" />
	<path
   d="m 49.512,21.634 c 4.372,0 7.922,3.546 7.922,7.922 0,4.376 -3.55,7.923 -7.922,7.923 -4.38,0 -7.927,-3.547 -7.927,-7.923 0,-4.376 3.547,-7.922 7.927,-7.922 z"
   id="path3007"
   inkscape:connector-curvature="0"
   style="fill:#000000;fill-opacity:0.627451" />
</g>
</svg>