<?xml version="1.0" encoding="UTF-8" standalone="no"?>
<svg
   xmlns:dc="http://purl.org/dc/elements/1.1/"
   xmlns:cc="http://creativecommons.org/ns#"
   xmlns:rdf="http://www.w3.org/1999/02/22-rdf-syntax-ns#"
   xmlns:svg="http://www.w3.org/2000/svg"
   xmlns="http://www.w3.org/2000/svg"
   xmlns:sodipodi="http://sodipodi.sourceforge.net/DTD/sodipodi-0.dtd"
   xmlns:inkscape="http://www.inkscape.org/namespaces/inkscape"
   version="1.1"
   x="0px"
   y="0px"
   width="100px"
   height="100px"
   viewBox="0 0 100 100"
   enable-background="new 0 0 100 100"
   xml:space="preserve"
   id="svg3105"
   inkscape:version="0.48.4 r9939"
   sodipodi:docname="play_again.svg"
   inkscape:export-filename="D:\Sandbox\AndroidNoise\AndroidNoise\design\play_again.png"
   inkscape:export-xdpi="50.400002"
   inkscape:export-ydpi="50.400002"><metadata
   id="metadata3223"><rdf:RDF><cc:Work
       rdf:about=""><dc:format>image/svg+xml</dc:format><dc:type
         rdf:resource="http://purl.org/dc/dcmitype/StillImage" /><dc:title></dc:title></cc:Work></rdf:RDF></metadata><defs
   id="defs3221" /><sodipodi:namedview
   pagecolor="#ffffff"
   bordercolor="#666666"
   borderopacity="1"
   objecttolerance="10"
   gridtolerance="10"
   guidetolerance="10"
   inkscape:pageopacity="0"
   inkscape:pageshadow="2"
   inkscape:window-width="1378"
   inkscape:window-height="829"
   id="namedview3219"
   showgrid="false"
   inkscape:zoom="6.42"
   inkscape:cx="50"
   inkscape:cy="50"
   inkscape:window-x="1555"
   inkscape:window-y="145"
   inkscape:window-maximized="0"
   inkscape:current-layer="svg3105" />

<g
   id="Your_Icon">
	<path
   fill-rule="evenodd"
   clip-rule="evenodd"
   d="M49.846,99.691C22.315,99.691,0,77.376,0,49.846C0,22.315,22.315,0,49.846,0   c27.527,0,49.846,22.315,49.846,49.846C99.691,77.376,77.373,99.691,49.846,99.691z M49.846,13.458   c-20.097,0-36.388,16.291-36.388,36.387s16.291,36.388,36.388,36.388s36.388-16.291,36.388-36.388S69.942,13.458,49.846,13.458z    M56.549,73.331h-13.24V56.476h-16.86v-13.24h16.86V26.379h13.24v16.856h16.85v13.24h-16.85V73.331z"
   id="path3217" />
</g>
</svg>