<?xml version="1.0" encoding="UTF-8" standalone="no"?>
<svg
   xmlns:dc="http://purl.org/dc/elements/1.1/"
   xmlns:cc="http://creativecommons.org/ns#"
   xmlns:rdf="http://www.w3.org/1999/02/22-rdf-syntax-ns#"
   xmlns:svg="http://www.w3.org/2000/svg"
   xmlns="http://www.w3.org/2000/svg"
   xmlns:xlink="http://www.w3.org/1999/xlink"
   xmlns:sodipodi="http://sodipodi.sourceforge.net/DTD/sodipodi-0.dtd"
   xmlns:inkscape="http://www.inkscape.org/namespaces/inkscape"
   version="1.1"
   id="Layer_1"
   x="0px"
   y="0px"
   width="100px"
   height="100px"
   viewBox="0 0 100 100"
   enable-background="new 0 0 100 100"
   xml:space="preserve"
   inkscape:version="0.48.4 r9939"
   sodipodi:docname="play_history.svg"
   inkscape:export-filename="D:\Sandbox\AndroidNoise\AndroidNoise\design\play_history.png"
   inkscape:export-xdpi="216"
   inkscape:export-ydpi="216"><metadata
   id="metadata4328"><rdf:RDF><cc:Work
       rdf:about=""><dc:format>image/svg+xml</dc:format><dc:type
         rdf:resource="http://purl.org/dc/dcmitype/StillImage" /><dc:title></dc:title></cc:Work></rdf:RDF></metadata><defs
   id="defs4326"><linearGradient
     inkscape:collect="always"
     id="linearGradient4838"><stop
       style="stop-color:#d3e2fd;stop-opacity:1;"
       offset="0"
       id="stop4840" /><stop
       style="stop-color:#d3e2fd;stop-opacity:0;"
       offset="1"
       id="stop4842" /></linearGradient><linearGradient
     inkscape:collect="always"
     xlink:href="#linearGradient4838"
     id="linearGradient4844"
     x1="3.3422449"
     y1="49.99975"
     x2="96.658125"
     y2="49.99975"
     gradientUnits="userSpaceOnUse" /></defs><sodipodi:namedview
   pagecolor="#ffffff"
   bordercolor="#666666"
   borderopacity="1"
   objecttolerance="10"
   gridtolerance="10"
   guidetolerance="10"
   inkscape:pageopacity="0"
   inkscape:pageshadow="2"
   inkscape:window-width="1569"
   inkscape:window-height="951"
   id="namedview4324"
   showgrid="false"
   inkscape:zoom="2.36"
   inkscape:cx="-16.101695"
   inkscape:cy="50"
   inkscape:window-x="1458"
   inkscape:window-y="95"
   inkscape:window-maximized="0"
   inkscape:current-layer="Layer_1" />
<g
   id="g4316"
   style="fill:#d3e2fd;fill-opacity:1;stroke:#d3e1fd;stroke-opacity:1">
	<g
   id="g4318"
   style="fill:#d3e2fd;fill-opacity:1;stroke:#d3e1fd;stroke-opacity:1">
		<path
   fill="#000000"
   d="M69.513,49.325l-12.958-0.003v-22.22c0-1.809-1.467-3.271-3.271-3.271s-3.271,1.463-3.271,3.271v25.492    c0,1.808,1.467,3.271,3.271,3.271l0,0h0.005h16.223c1.805,0,3.27-1.463,3.27-3.27C72.781,50.791,71.316,49.325,69.513,49.325z"
   id="path4320"
   style="fill:#d3e2fd;fill-opacity:1;stroke:#d3e1fd;stroke-opacity:1" />
	</g>
	<path
   fill="#000000"
   d="M84.449,20.465c-16.278-16.278-42.766-16.278-59.049,0c-7.184,7.186-11.446,16.592-12.13,26.667   l-4.254-4.581c-1.231-1.322-3.304-1.401-4.627-0.172c-1.326,1.231-1.402,3.304-0.172,4.63l9.475,10.202   c0.645,0.694,1.521,1.046,2.4,1.046c0.797,0,1.596-0.289,2.227-0.874l10.205-9.476c1.326-1.231,1.402-3.304,0.172-4.628   c-1.23-1.325-3.303-1.405-4.628-0.172l-4.184,3.884c0.7-8.269,4.232-15.978,10.147-21.896c13.727-13.725,36.061-13.725,49.787,0   c13.725,13.726,13.725,36.062,0,49.788c-6.648,6.649-15.489,10.311-24.894,10.311c-9.4,0-18.241-3.661-24.893-10.311   c-1.28-1.279-3.354-1.279-4.632,0s-1.278,3.354,0.001,4.631c7.89,7.887,18.375,12.229,29.524,12.229   c11.153,0,21.638-4.343,29.524-12.229C100.728,63.235,100.728,36.744,84.449,20.465z"
   id="path4322"
   style="fill:#d3e2fd;fill-opacity:1;stroke:#d3e1fd;stroke-opacity:1" />
</g>
</svg>