<?xml version="1.0" encoding="UTF-8" standalone="no"?>
<svg
   xmlns:dc="http://purl.org/dc/elements/1.1/"
   xmlns:cc="http://creativecommons.org/ns#"
   xmlns:rdf="http://www.w3.org/1999/02/22-rdf-syntax-ns#"
   xmlns:svg="http://www.w3.org/2000/svg"
   xmlns="http://www.w3.org/2000/svg"
   xmlns:sodipodi="http://sodipodi.sourceforge.net/DTD/sodipodi-0.dtd"
   xmlns:inkscape="http://www.inkscape.org/namespaces/inkscape"
   version="1.1"
   id="Your_Icon"
   x="0px"
   y="0px"
   width="100px"
   height="100px"
   viewBox="0 0 100 100"
   enable-background="new 0 0 100 100"
   xml:space="preserve"
   inkscape:version="0.48.4 r9939"
   sodipodi:docname="replay.svg"
   inkscape:export-filename="D:\Sandbox\AndroidNoise\AndroidNoise\design\replay.png"
   inkscape:export-xdpi="50.400002"
   inkscape:export-ydpi="50.400002"><metadata
   id="metadata4019"><rdf:RDF><cc:Work
       rdf:about=""><dc:format>image/svg+xml</dc:format><dc:type
         rdf:resource="http://purl.org/dc/dcmitype/StillImage" /><dc:title></dc:title></cc:Work></rdf:RDF></metadata><defs
   id="defs4017" /><sodipodi:namedview
   pagecolor="#ffffff"
   bordercolor="#666666"
   borderopacity="1"
   objecttolerance="10"
   gridtolerance="10"
   guidetolerance="10"
   inkscape:pageopacity="0"
   inkscape:pageshadow="2"
   inkscape:window-width="1390"
   inkscape:window-height="811"
   id="namedview4015"
   showgrid="false"
   inkscape:zoom="6.24"
   inkscape:cx="50"
   inkscape:cy="50"
   inkscape:window-x="1539"
   inkscape:window-y="136"
   inkscape:window-maximized="0"
   inkscape:current-layer="Your_Icon" />
<path
   fill-rule="evenodd"
   clip-rule="evenodd"
   d="M0.166,49.438C0.166,75.152,20.744,96,46.125,96  c12.096,0,23.1-4.731,31.306-12.469c2.144-2.021-8.776-12.227-10.269-10.84c-5.54,5.146-12.926,8.286-21.037,8.286  c-17.193,0-31.133-14.122-31.133-31.544s13.939-31.545,31.133-31.545c17.197,0,31.135,11.108,31.135,28.53  c0,0.007,0.021,0.062,0.049,0.069L75.778,48c-3.484,0-5.931,0-5.931,0l14.826,18.023L99.5,48c0,0-2.447,0-5.931,0l-1.531-1.514  c0.017-0.006,0.05-0.015,0.05-0.021c0-25.716-20.578-43.574-45.963-43.574C20.744,2.891,0.166,23.723,0.166,49.438z M78.743,44.933  l0.115,0.023l-0.089,0.086C78.754,44.977,78.743,44.933,78.743,44.933z"
   id="path4013" />
</svg>