<?xml version="1.0" encoding="UTF-8" standalone="no"?>
<!-- Generator: Adobe Illustrator 15.1.0, SVG Export Plug-In . SVG Version: 6.00 Build 0)  -->

<svg
   xmlns:dc="http://purl.org/dc/elements/1.1/"
   xmlns:cc="http://creativecommons.org/ns#"
   xmlns:rdf="http://www.w3.org/1999/02/22-rdf-syntax-ns#"
   xmlns:svg="http://www.w3.org/2000/svg"
   xmlns="http://www.w3.org/2000/svg"
   xmlns:sodipodi="http://sodipodi.sourceforge.net/DTD/sodipodi-0.dtd"
   xmlns:inkscape="http://www.inkscape.org/namespaces/inkscape"
   version="1.1"
   id="Layer_1"
   x="0px"
   y="0px"
   width="108.00145"
   height="107.99763"
   viewBox="0 0 108.00145 107.99763"
   enable-background="new 0 0 100 100"
   xml:space="preserve"
   inkscape:version="0.48.4 r9939"
   sodipodi:docname="Search Background.svg"
   inkscape:export-filename="C:\Users\BSwanson\Desktop\Sandbox\AndroidNoise\AndroidNoise\design\search_background.png"
   inkscape:export-xdpi="200"
   inkscape:export-ydpi="200"><metadata
   id="metadata3313"><rdf:RDF><cc:Work
       rdf:about=""><dc:format>image/svg+xml</dc:format><dc:type
         rdf:resource="http://purl.org/dc/dcmitype/StillImage" /><dc:title></dc:title></cc:Work></rdf:RDF></metadata><defs
   id="defs3311" /><sodipodi:namedview
   pagecolor="#ffffff"
   bordercolor="#666666"
   borderopacity="1"
   objecttolerance="10"
   gridtolerance="10"
   guidetolerance="10"
   inkscape:pageopacity="0"
   inkscape:pageshadow="2"
   inkscape:window-width="1449"
   inkscape:window-height="948"
   id="namedview3309"
   showgrid="false"
   inkscape:zoom="6.7686672"
   inkscape:cx="54.000725"
   inkscape:cy="53.998814"
   inkscape:window-x="299"
   inkscape:window-y="87"
   inkscape:window-maximized="0"
   inkscape:current-layer="Layer_1"
   fit-margin-top="4"
   fit-margin-left="4"
   fit-margin-right="4"
   fit-margin-bottom="4" />
<path
   d="m 92.896204,15.10525 c -14.807,-14.807 -38.812,-14.807 -53.619,0 -14.807,14.806 -14.807,38.812 0,53.619 14.807,14.807 38.812,14.807 53.619,0 14.806996,-14.807 14.806996,-38.812 0,-53.619 z m -4.233,49.387 c -12.469,12.468 -32.684,12.468 -45.153,0 -12.468,-12.469 -12.468,-32.685 0,-45.153 12.469,-12.468 32.685,-12.469 45.153,0 12.467996,12.469 12.467996,32.683 0,45.153 z"
   id="path3305"
   style="fill:#d3e2fd;fill-opacity:1"
   inkscape:connector-curvature="0" />
<rect
   x="70.379417"
   y="24.812943"
   transform="matrix(0.70710678,0.70710678,-0.70710678,0.70710678,0,0)"
   width="11.972885"
   height="39.909618"
   id="rect3307"
   style="fill:#d3e2fd;fill-opacity:1" />
</svg>