<?xml version="1.0" encoding="UTF-8" standalone="no"?>
<svg
   xmlns:dc="http://purl.org/dc/elements/1.1/"
   xmlns:cc="http://creativecommons.org/ns#"
   xmlns:rdf="http://www.w3.org/1999/02/22-rdf-syntax-ns#"
   xmlns:svg="http://www.w3.org/2000/svg"
   xmlns="http://www.w3.org/2000/svg"
   xmlns:sodipodi="http://sodipodi.sourceforge.net/DTD/sodipodi-0.dtd"
   xmlns:inkscape="http://www.inkscape.org/namespaces/inkscape"
   version="1.1"
   id="Layer_1"
   x="0px"
   y="0px"
   width="92.322182"
   height="106.00086"
   viewBox="0 0 92.322182 106.00086"
   enable-background="new 0 0 100 100"
   xml:space="preserve"
   inkscape:version="0.48.4 r9939"
   sodipodi:docname="Track Background.svg"
   inkscape:export-filename="D:\Sandbox\AndroidNoise\AndroidNoise\design\track_background.png"
   inkscape:export-xdpi="203.77"
   inkscape:export-ydpi="203.77"><metadata
   id="metadata3835"><rdf:RDF><cc:Work
       rdf:about=""><dc:format>image/svg+xml</dc:format><dc:type
         rdf:resource="http://purl.org/dc/dcmitype/StillImage" /><dc:title></dc:title></cc:Work></rdf:RDF></metadata><defs
   id="defs3833" /><sodipodi:namedview
   pagecolor="#ffffff"
   bordercolor="#666666"
   borderopacity="1"
   objecttolerance="10"
   gridtolerance="10"
   guidetolerance="10"
   inkscape:pageopacity="0"
   inkscape:pageshadow="2"
   inkscape:window-width="1644"
   inkscape:window-height="988"
   id="namedview3831"
   showgrid="false"
   inkscape:zoom="8.0099311"
   inkscape:cx="46.161091"
   inkscape:cy="53.000427"
   inkscape:window-x="1389"
   inkscape:window-y="69"
   inkscape:window-maximized="0"
   inkscape:current-layer="Layer_1"
   fit-margin-top="3"
   fit-margin-left="3"
   fit-margin-right="3"
   fit-margin-bottom="3" />
<path
   d="m 89.322185,3.0710365 c -33.501,-1.114 -60.941,11.2430005 -60.941,11.2430005 l -0.02,62.709 c -3.411,-1.354 -7.559,-1.675 -11.772,-0.651 -9.083,2.207 -15.031,9.82 -13.285,17.007 1.746,7.187003 10.524,11.225003 19.606,9.019003 8.564,-2.081 14.338,-8.969003 13.507,-15.772003 l 0,0 v -46.855 c 0,0 19.404,-6.784 44.573,-8.485 v 34.849 l 0,0 c -3.374,-1.292 -7.443,-1.585 -11.579,-0.58 -9.083,2.206 -15.031,9.819 -13.285,17.007 1.745,7.187 10.523,11.224 19.606,9.018 7.931,-1.927 13.471,-7.977 13.587,-14.264 l 0.003,0.004 c 0,-0.002 0,-61.521 0,-74.2490005 z"
   id="path3829"
   style="fill:#d3e2fd;fill-opacity:1"
   inkscape:connector-curvature="0" />
</svg>