<?xml version="1.0" encoding="UTF-8" standalone="no"?>
<svg
   xmlns:dc="http://purl.org/dc/elements/1.1/"
   xmlns:cc="http://creativecommons.org/ns#"
   xmlns:rdf="http://www.w3.org/1999/02/22-rdf-syntax-ns#"
   xmlns:svg="http://www.w3.org/2000/svg"
   xmlns="http://www.w3.org/2000/svg"
   xmlns:sodipodi="http://sodipodi.sourceforge.net/DTD/sodipodi-0.dtd"
   xmlns:inkscape="http://www.inkscape.org/namespaces/inkscape"
   version="1.1"
   id="Your_Icon"
   x="0px"
   y="0px"
   width="100px"
   height="100px"
   viewBox="0 0 100 100"
   enable-background="new 0 0 100 100"
   xml:space="preserve"
   inkscape:version="0.48.4 r9939"
   sodipodi:docname="Track Icon.svg"
   inkscape:export-filename="D:\Sandbox\AndroidNoise\AndroidNoise\design\Track Icon.png"
   inkscape:export-xdpi="460.79999"
   inkscape:export-ydpi="460.79999"><metadata
   id="metadata3005"><rdf:RDF><cc:Work
       rdf:about=""><dc:format>image/svg+xml</dc:format><dc:type
         rdf:resource="http://purl.org/dc/dcmitype/StillImage" /><dc:title></dc:title></cc:Work></rdf:RDF></metadata><defs
   id="defs3003" /><sodipodi:namedview
   pagecolor="#ffffff"
   bordercolor="#666666"
   borderopacity="1"
   objecttolerance="10"
   gridtolerance="10"
   guidetolerance="10"
   inkscape:pageopacity="0"
   inkscape:pageshadow="2"
   inkscape:window-width="640"
   inkscape:window-height="480"
   id="namedview3001"
   showgrid="false"
   inkscape:zoom="2.36"
   inkscape:cx="50"
   inkscape:cy="50"
   inkscape:window-x="1839"
   inkscape:window-y="226"
   inkscape:window-maximized="0"
   inkscape:current-layer="Your_Icon" />
<g
   id="g2997">
	<path
   fill-rule="evenodd"
   clip-rule="evenodd"
   d="M55,31.077V87.12C52.566,94.536,44.258,100,34.38,100   c-11.787,0-21.34-7.779-21.34-17.375S22.593,65.25,34.38,65.25c3.801,0,7.368,0.812,10.456,2.226V0h1.536   c1.104,6.981,5.84,11.392,11.379,15.077c6.535,4.35,12.525,9.223,16.934,15.824c7.529,11.27,7.184,23.544-0.975,33.866   c-0.301,0.383-0.651,0.727-1.349,1.493C76.621,50.318,69.795,36.931,55,31.077z"
   id="path2999" />
</g>
</svg>